{"title":"Higanjima: Escape From Vampire Island BRRIP1080P","uid":8161628,"size":2916074510,"categoryP":"video","categoryS":"hd___movies","magnet":"?xt=urn:btih:a53bc74d6a3edcc9da262a29f8b43c31d287eaf6&amp;dn=Higanjima%3A+Escape+From+Vampire+Island+BRRIP1080P&amp;tr=udp%3A%2F%2Ftracker.openbittorrent.com%3A80&amp;tr=udp%3A%2F%2Fopen.demonii.com%3A1337&amp;tr=udp%3A%2F%2Ftracker.coppersurfer.tk%3A6969&amp;tr=udp%3A%2F%2Fexodus.desync.com%3A6969","seeders":0,"leechers":5,"uploader":"jmanwf","files":2,"time":1361262087,"description":"ENGLISH DUBBED\n\n\n\n\nFormat                                   : MPEG-4\nFormat profile                           : Base Media\nCodec ID                                 : isom\nFile size                                : 2.67 GiB\nDuration                                 : 2h 2mn\nOverall bit rate mode                    : Variable\nOverall bit rate                         : 3 125 Kbps\nWriting application                      : Lavf54.4.100\n\nVideo\nID                                       : 1\nFormat                                   : AVC\nFormat/Info                              : Advanced Video Codec\nFormat profile                           : &lt;a class=&quot;__cf_email__&quot; href=&quot;/cdn-cgi/l/email-protection&quot; data-cfemail=&quot;9ad2f3fdf2dad6aeb4ab&quot;&gt;[email&amp;#160;protected]&lt;/a&gt;&lt;script cf-hash='f9e31' type=&quot;text/javascript&quot;&gt;\n/* &lt;![CDATA[ */!function(){try{var t=&quot;currentScript&quot;in document?document.currentScript:function(){for(var t=document.getElementsByTagName(&quot;script&quot;),e=t.length;e--;)if(t[e].getAttribute(&quot;cf-hash&quot;))return t[e]}();if(t&amp;&amp;t.previousSibling){var e,r,n,i,c=t.previousSibling,a=c.getAttribute(&quot;data-cfemail&quot;);if(a){for(e=&quot;&quot;,r=parseInt(a.substr(0,2),16),n=2;a.length-n;n+=2)i=parseInt(a.substr(n,2),16)^r,e+=String.fromCharCode(i);e=document.createTextNode(e),c.parentNode.replaceChild(e,c)}}}catch(u){}}();/* ]]&gt; */&lt;/script&gt;\nFormat settings, CABAC                   : Yes\nFormat settings, ReFrames                : 4 frames\nCodec ID                                 : avc1\nCodec ID/Info                            : Advanced Video Coding\nDuration                                 : 2h 2mn\nBit rate                                 : 3 000 Kbps\nWidth                                    : 1 920 pixels\nHeight                                   : 1 080 pixels\nDisplay aspect ratio                     : 16:9\nFrame rate mode                          : Constant\nFrame rate                               : 23.976 fps\nColor space                              : YUV\nChroma subsampling                       : 4:2:0\nBit depth                                : 8 bits\nScan type                                : Progressive\nBits/(Pixel*Frame)                       : 0.060\nStream size                              : 2.53 GiB (95%)\nWriting library                          : x264 core 123\nEncoding settings                        : cabac=1 / ref=1 / deblock=1:0:0 / \n\nAudiID                                       : 2Format                                   : AAC\nFormat/Info                              : Advanced Audio Codec\nFormat profile                           : LC\nCodec ID                                 : 40\nDuration                                 : 2h 2mn\nBit rate mode                            : Variable\nBit rate                                 : 165 Kbps\nMaximum bit rate                         : 192 Kbps\nChannel(s)                               : 2 channels\nChannel positions                        : Front: L R\nSampling rate                            : 48.0 KHz\nCompression mode                         : Lossy\nStream size                              : 145 MiB (5%)\n\n","torrent":{"xt":"urn:btih:a53bc74d6a3edcc9da262a29f8b43c31d287eaf6","amp;dn":"Higanjima%3A+Escape+From+Vampire+Island+BRRIP1080P","amp;tr":["udp%3A%2F%2Ftracker.openbittorrent.com%3A80","udp%3A%2F%2Fopen.demonii.com%3A1337","udp%3A%2F%2Ftracker.coppersurfer.tk%3A6969","udp%3A%2F%2Fexodus.desync.com%3A6969"],"infoHash":"a53bc74d6a3edcc9da262a29f8b43c31d287eaf6","infoHashBuffer":{"type":"Buffer","data":[165,59,199,77,106,62,220,201,218,38,42,41,248,180,60,49,210,135,234,246]},"announce":[],"urlList":[]}}